<svg width="20" height="20" viewBox="0 0 20 20" fill="none" xmlns="http://www.w3.org/2000/svg">
<path d="M10.0001 1.66669C6.77508 1.66669 4.16675 4.27502 4.16675 7.50002C4.16675 11.875 10.0001 18.3334 10.0001 18.3334C10.0001 18.3334 15.8334 11.875 15.8334 7.50002C15.8334 4.27502 13.2251 1.66669 10.0001 1.66669ZM5.83341 7.50002C5.83341 5.20002 7.70008 3.33335 10.0001 3.33335C12.3001 3.33335 14.1667 5.20002 14.1667 7.50002C14.1667 9.90002 11.7667 13.4917 10.0001 15.7334C8.26675 13.5084 5.83341 9.87502 5.83341 7.50002Z" fill="black"/>
<path d="M10.0001 9.58335C11.1507 9.58335 12.0834 8.65061 12.0834 7.50002C12.0834 6.34943 11.1507 5.41669 10.0001 5.41669C8.84949 5.41669 7.91675 6.34943 7.91675 7.50002C7.91675 8.65061 8.84949 9.58335 10.0001 9.58335Z" fill="black"/>
</svg>
