<svg width="25" height="24" viewBox="0 0 25 24" fill="none" xmlns="http://www.w3.org/2000/svg">
<path d="M6.30225 3H17.8647V15.8L10.6252 23L9.60954 22.225C9.50537 22.1417 9.42725 22.025 9.37516 21.875C9.32308 21.725 9.29704 21.5417 9.29704 21.325V21.075L10.4689 15.8H2.68245C2.26579 15.8 1.9012 15.65 1.5887 15.35C1.2762 15.05 1.11995 14.7 1.11995 14.3V12.254C1.11995 12.1347 1.10693 12.0125 1.08089 11.8875C1.05485 11.7625 1.06787 11.6417 1.11995 11.525L4.4012 4.275C4.55534 3.92083 4.81224 3.61979 5.17191 3.37188C5.53156 3.12396 5.90834 3 6.30225 3ZM16.3022 4.5H5.9637L2.68245 11.975V14.3H12.396L11.0158 20.525L16.3022 15.175V4.5ZM17.8647 15.8V14.3H21.3283V4.5H17.8647V3H22.8908V15.8H17.8647Z" fill="black" fill-opacity="0.5"/>
</svg>
