<svg width="23" height="22" viewBox="0 0 23 22" fill="none" xmlns="http://www.w3.org/2000/svg">
<path d="M17.4833 22H5.29714V7.92L12.9272 0L13.9976 0.8525C14.1074 0.944167 14.1897 1.0725 14.2446 1.2375C14.2995 1.4025 14.327 1.60417 14.327 1.8425V2.1175L13.0919 7.92H21.2983C21.7375 7.92 22.1217 8.085 22.4511 8.415C22.7804 8.745 22.9451 9.13 22.9451 9.57V11.8206C22.9451 11.9519 22.9588 12.0862 22.9863 12.2237C23.0137 12.3612 23 12.4942 22.9451 12.6225L19.4869 20.5975C19.3244 20.9871 19.0537 21.3182 18.6746 21.5909C18.2955 21.8636 17.8984 22 17.4833 22ZM6.94391 20.35H17.8401L21.2983 12.1275V9.57H11.0609L12.5155 2.7225L6.94391 8.6075V20.35ZM5.29714 7.92V9.57H1.64678V20.35H5.29714V22H0V7.92H5.29714Z" fill="black" fill-opacity="0.5"/>
</svg>
